<svg width="1920" height="347" viewBox="0 0 1920 347" fill="none" xmlns="http://www.w3.org/2000/svg">
<path fill-rule="evenodd" clip-rule="evenodd" d="M-246.501 -22.1185L-141.797 18.1041C-35.3694 56.2648 173.869 134.818 377.545 129.934C581.052 123.159 775.211 33.2867 983.123 75.7141C1191.03 118.142 1408.92 293.207 1616.83 335.635C1824.74 378.062 2018.9 288.19 2117.87 243.084L2214.78 196.256L2175.81 -239L2075.51 -230.02C1973.32 -220.87 1772.72 -202.909 1570.23 -184.78C1367.74 -166.65 1167.14 -148.689 964.654 -130.559C762.164 -112.429 561.567 -94.4688 359.077 -76.3389C156.587 -58.2089 -44.0107 -40.2484 -146.202 -31.0987L-246.501 -22.1185Z" fill="#2275CB"/>
</svg>
