<svg width="149" height="40" viewBox="0 0 149 40" fill="none" xmlns="http://www.w3.org/2000/svg">
<path d="M69.135 26L70.17 24.965V22.865H68.085V23.9H62.85V17.6H68.085V18.65H70.17V16.565L69.135 15.5H61.785L60.75 16.565V24.965L61.785 26H69.135ZM73.6166 23.9V17.6H78.8516V23.9H73.6166ZM79.9016 26L80.9366 24.965V16.565L79.9016 15.5H72.5516L71.5166 16.565V24.965L72.5516 26H79.9016ZM84.5297 26V15.5H82.4297V26H84.5297ZM95.4532 26V15.5H93.3682V22.49L88.1332 15.5H86.0332V26H88.1332V18.995L93.3682 26H95.4532ZM101.731 23.9H100.681L98.5963 21.815V20.765H96.4963V22.865L99.6313 26H102.781L105.916 22.865V15.5H100.681V17.6H103.831V21.815L101.731 23.9ZM116.33 26V23.9H109.52V21.815H115.805V19.715H109.52V17.6H116.33V15.5H107.42V26H116.33ZM126.059 26L127.094 24.965V22.865H125.009V23.9H119.774V17.6H125.009V18.65H127.094V16.565L126.059 15.5H118.709L117.674 16.565V24.965L118.709 26H126.059ZM133.765 26V17.6H137.41V15.5H127.99V17.6H131.665V26H133.765ZM146.845 26L147.88 24.965V20.75L146.845 19.7H140.56V17.6H145.795V18.65H147.88V16.565L146.845 15.5H139.495L138.46 16.565V21.065L139.495 21.815H145.795V23.9H140.56V22.865H138.46V24.965L139.495 26H146.845Z" fill="#F2F2F2"/>
<path d="M44.863 3.20435C43.2138 5.99913 40.387 7.97726 37.3123 8.98198C34.2376 9.9867 30.9256 10.0791 27.7153 9.69397C25.1762 9.38902 22.6746 8.79326 20.1265 8.57645C17.5783 8.35963 14.9156 8.55028 12.6438 9.73043C10.3752 10.9099 8.66908 12.9983 7.55355 15.3063C6.43803 17.6142 5.86533 20.1482 5.42236 22.676C6.77431 19.6115 10.1563 17.8819 13.4679 17.4796C16.7795 17.0772 20.1115 17.7553 23.415 18.2192C28.4412 18.925 33.1391 18.5508 37.3774 15.5154C41.376 12.6515 44.2154 8.11944 44.863 3.20435Z" fill="#38F9D7"/>
<path d="M45 1.16156C41.8114 1.6977 38.9556 3.63337 36.9131 6.15236C34.8707 8.67135 33.589 11.7421 32.7873 14.8901C32.1534 17.3802 31.8035 19.9401 31.084 22.4066C30.3645 24.873 29.2276 27.2998 27.3115 29.003C25.3954 30.7062 22.8445 31.5486 20.2993 31.7605C17.7542 31.9723 15.1971 31.5945 12.6919 31.0969C16.0235 30.9363 18.8495 28.3909 20.4182 25.4325C21.9869 22.4741 22.5613 19.1061 23.3237 15.8423C24.4838 10.8766 26.5271 6.60851 30.8738 3.73223C34.9757 1.01809 40.2059 -0.00614733 45 1.16156Z" fill="white"/>
<path d="M19.6835 39.6C16.8162 39.5975 13.984 38.9661 11.3847 37.7496C8.78539 36.5332 6.48159 34.7612 4.63418 32.5573C2.78678 30.3534 1.44029 27.7708 0.688756 24.9898C-0.0627811 22.2087 -0.201255 19.2963 0.283003 16.4559C0.76726 13.6156 1.86258 10.9156 3.49247 8.54475C5.12236 6.17384 7.24754 4.1891 9.7196 2.72912C12.1917 1.26913 14.951 0.369089 17.805 0.0918452C20.659 -0.185399 23.5387 0.166836 26.2432 1.12395L25.7892 2.41648C22.1186 1.11319 18.1307 1.01758 14.4025 2.14346C10.6743 3.26935 7.39919 5.55833 5.05124 8.67914C2.7033 11.8 1.40428 15.5907 1.34217 19.5028C1.28007 23.4149 2.45811 27.2453 4.7058 30.4398C6.95349 33.6344 10.1542 36.0272 13.8448 37.272C17.5354 38.5169 21.5243 38.5492 25.2344 37.3643C28.9444 36.1793 32.1831 33.8386 34.4817 30.681C36.7803 27.5233 38.0196 23.7124 38.0203 19.7998H39.3833C39.3774 25.0492 37.3 30.0819 33.6069 33.7939C29.9138 37.5059 24.9064 39.5939 19.6835 39.6Z" fill="white"/>
<path d="M38.0927 26.0847C39.9652 26.0847 41.4832 24.559 41.4832 22.677C41.4832 20.795 39.9652 19.2693 38.0927 19.2693C36.2201 19.2693 34.7021 20.795 34.7021 22.677C34.7021 24.559 36.2201 26.0847 38.0927 26.0847Z" fill="#38F9D7"/>
</svg>
