<svg width="20" height="20" viewBox="0 0 20 20" fill="none" xmlns="http://www.w3.org/2000/svg">
<g clip-path="url(#clip0_244_2627)">
<path d="M18.2692 0H1.7308C0.776367 0 0 0.776367 0 1.7308V3.65387H20V1.7308C20 0.776367 19.2236 0 18.2692 0Z" fill="#F5F5F5"/>
<path d="M0 4.99988C0 5.95416 0.776367 6.73068 1.7308 6.73068H2.5V4.80762H0V4.99988Z" fill="#F5F5F5"/>
<path d="M17.5 6.73068H18.2692C19.2236 6.73068 20 5.95416 20 4.99988V4.80762H17.5V6.73068Z" fill="#F5F5F5"/>
<path d="M3.6543 4.80762V19.4229C3.6543 19.7414 3.91278 19.9999 4.23123 19.9999H15.7696C16.0881 19.9999 16.3466 19.7414 16.3466 19.4229V4.80762H3.6543ZM9.03882 17.4999C9.03882 17.8185 8.78064 18.0768 8.46204 18.0768C8.14328 18.0768 7.8851 17.8185 7.8851 17.4999V16.346C7.8851 16.0279 7.62616 15.7691 7.30817 15.7691H6.1543C5.83569 15.7691 5.57736 15.5107 5.57736 15.1921C5.57736 14.8735 5.83569 14.6152 6.1543 14.6152H7.30817C8.26245 14.6152 9.03882 15.3917 9.03882 16.346V17.4999ZM10.5774 9.03827V11.5383C10.5774 11.857 10.319 12.1152 10.0004 12.1152H9.23123C8.34195 12.1152 7.60739 11.4409 7.51141 10.5768H6.53882C6.22021 10.5768 5.96204 10.3185 5.96204 9.99988C5.96204 9.68127 6.22021 9.42294 6.53882 9.42294H7.50043V8.46149C7.50043 8.14273 7.75876 7.88455 8.07736 7.88455C8.39597 7.88455 8.6543 8.14273 8.6543 8.46149V10.3846C8.6543 10.7025 8.91309 10.9615 9.23123 10.9615H9.42349V8.46149C9.42349 8.14273 9.68182 7.88455 10.0004 7.88455H10.7696C11.6589 7.88455 12.3935 8.55884 12.4894 9.42294H13.462C13.7806 9.42294 14.0388 9.68127 14.0388 9.99988C14.0388 10.3185 13.7806 10.5768 13.462 10.5768H12.5004V11.5383C12.5004 11.857 12.2421 12.1152 11.9235 12.1152C11.6049 12.1152 11.3466 11.857 11.3466 11.5383V9.6152C11.3466 9.29721 11.0878 9.03827 10.7696 9.03827H10.5774ZM13.8466 15.7691H12.6927C12.3747 15.7691 12.1158 16.0279 12.1158 16.346V17.4999C12.1158 17.8185 11.8576 18.0768 11.5388 18.0768C11.2202 18.0768 10.962 17.8185 10.962 17.4999V16.346C10.962 15.3917 11.7384 14.6152 12.6927 14.6152H13.8466C14.1652 14.6152 14.4235 14.8735 14.4235 15.1921C14.4235 15.5107 14.1652 15.7691 13.8466 15.7691Z" fill="#F5F5F5"/>
</g>
<defs>
<clipPath id="clip0_244_2627">
<rect width="20" height="20" fill="white"/>
</clipPath>
</defs>
</svg>
