<svg width="20" height="14" viewBox="0 0 20 14" fill="none" xmlns="http://www.w3.org/2000/svg">
<path d="M19.802 0.531462C19.6701 0.399497 19.5138 0.333496 19.3332 0.333496H0.66672C0.486194 0.333496 0.329858 0.399497 0.197893 0.531462C0.0660737 0.66339 0 0.819617 0 1.00011V12.9999C0 13.1805 0.0660737 13.3368 0.197893 13.4687C0.329858 13.6005 0.486194 13.6667 0.66672 13.6667H19.3332C19.5138 13.6667 19.6701 13.6005 19.802 13.4687C19.9338 13.3368 20 13.1805 20 12.9999V1.00011C20 0.819617 19.9338 0.6635 19.802 0.531462ZM18.6665 9.66677C17.9303 9.66677 17.3021 9.92724 16.781 10.4479C16.2602 10.9685 15.9998 11.597 15.9998 12.3332H3.99996C3.99996 11.597 3.73957 10.9685 3.21878 10.4479C2.69797 9.92698 2.06955 9.66677 1.33333 9.66677V4.33341C2.06955 4.33341 2.69793 4.07295 3.21878 3.55224C3.73957 3.03146 3.99996 2.40294 3.99996 1.66679H16.0001C16.0001 2.40294 16.2603 3.03146 16.7812 3.55224C17.3021 4.07295 17.9303 4.33341 18.6665 4.33341V9.66677Z" fill="white"/>
<path d="M12.4951 4.12532C12.2278 3.69469 11.8753 3.34396 11.4378 3.07321C11.0003 2.80239 10.5212 2.66699 10.0003 2.66699C9.47945 2.66699 9.0004 2.80239 8.56288 3.07321C8.12539 3.34396 7.77291 3.69469 7.50555 4.12532C7.23809 4.55576 7.03158 5.02102 6.88575 5.52107C6.73985 6.02106 6.66699 6.51422 6.66699 7.0002C6.66699 7.48606 6.73985 7.97926 6.88575 8.47917C7.03158 8.97908 7.23809 9.44455 7.50555 9.87507C7.77295 10.3058 8.12539 10.6563 8.56288 10.9271C9.00044 11.1981 9.47945 11.3335 10.0003 11.3335C10.5212 11.3335 11.0003 11.1981 11.4378 10.9271C11.8753 10.6563 12.2278 10.3057 12.4951 9.87507C12.7625 9.44455 12.969 8.97908 13.1149 8.47917C13.2609 7.97926 13.3336 7.48606 13.3336 7.0002C13.3336 6.51426 13.2609 6.02109 13.1149 5.52107C12.969 5.02102 12.7625 4.55576 12.4951 4.12532ZM12.0004 9.66682H8.00032V8.66674H9.33347V5.66679H9.3126C9.22234 5.80569 9.03142 6.00369 8.73983 6.26054L7.93783 5.42727L9.47941 4.00018H10.667V8.66674H12.0004V9.66682Z" fill="white"/>
</svg>
