<svg width="20" height="16" viewBox="0 0 20 16" fill="none" xmlns="http://www.w3.org/2000/svg">
<path d="M19.5103 0.489514C19.1839 0.163159 18.7916 0 18.3334 0H1.66665C1.20833 0 0.816088 0.163123 0.489514 0.489514C0.163123 0.815942 0 1.20819 0 1.66654V14.333C0 14.7915 0.163123 15.1838 0.489514 15.5102C0.816088 15.8366 1.20833 15.9997 1.66665 15.9997H18.3334C18.7916 15.9997 19.1839 15.8366 19.5103 15.5102C19.8367 15.1838 20 14.7915 20 14.333V1.66654C20 1.20819 19.8367 0.815942 19.5103 0.489514ZM18.6665 14.3333C18.6665 14.4237 18.6336 14.5016 18.5676 14.5678C18.5017 14.6334 18.4235 14.6664 18.3334 14.6664H1.66665C1.57643 14.6664 1.49828 14.6334 1.43231 14.5675C1.36639 14.5014 1.33337 14.4234 1.33337 14.333V7.99987H18.6666V14.3333H18.6665ZM18.6665 3.99974H1.33333V1.6664C1.33333 1.57614 1.36624 1.49817 1.43228 1.43206C1.49828 1.36628 1.57643 1.33326 1.66662 1.33326H18.3333C18.4235 1.33326 18.5016 1.36613 18.5676 1.43206C18.6335 1.49817 18.6665 1.57614 18.6665 1.6664V3.99974H18.6665Z" fill="#F5F5F5"/>
<path d="M5.33313 11.9995H2.6665V13.333H5.33313V11.9995Z" fill="#F5F5F5"/>
<path d="M10.6669 11.9995H6.66699V13.333H10.6669V11.9995Z" fill="#F5F5F5"/>
</svg>
