<svg width="20" height="20" viewBox="0 0 20 20" fill="none" xmlns="http://www.w3.org/2000/svg">
<path d="M5 7.85596H0.715481C0.322176 7.85596 0.0041841 8.17395 0 8.57144V19.2827C0 19.6802 0.322176 19.9982 0.715481 19.9982H5C5.39749 19.9982 5.71548 19.676 5.71548 19.2827V8.57144C5.71548 8.17395 5.39331 7.85596 5 7.85596Z" fill="#F5F5F5"/>
<path d="M12.1426 0.00195312H7.85806C7.46475 0.00195312 7.14258 0.319945 7.14258 0.71325V19.2823C7.14258 19.6798 7.46475 19.9978 7.85806 19.9978H12.1426C12.5401 19.9978 12.8581 19.6756 12.8581 19.2823V0.717434C12.8581 0.319945 12.5359 0.00195312 12.1426 0.00195312Z" fill="#F5F5F5"/>
<path d="M19.2842 5.71338H14.9997C14.6022 5.71338 14.2842 6.03137 14.2842 6.42886V19.2824C14.2842 19.6799 14.6064 19.9979 14.9997 19.9979H19.2842C19.6817 19.9979 19.9997 19.6757 19.9997 19.2824V6.42886C19.9997 6.03137 19.6775 5.71338 19.2842 5.71338Z" fill="#F5F5F5"/>
</svg>
