<svg width="20" height="16" viewBox="0 0 20 16" fill="none" xmlns="http://www.w3.org/2000/svg">
<path d="M18.3333 0.281738H1.66667C0.75 0.281738 0 1.03174 0 1.9484V7.14882H5.12542L6.24542 4.2834C6.37333 3.95632 6.70125 3.74215 7.04292 3.75382C7.39375 3.76299 7.70167 3.99091 7.8125 4.32382L9.39708 9.08924L11.1071 5.02132C11.2329 4.72257 11.52 4.52382 11.8446 4.51174C12.1788 4.49757 12.4708 4.67674 12.6175 4.96549L13.7325 7.14924H14.8612C15.3212 7.14924 15.6946 7.52257 15.6946 7.98257C15.6946 8.44257 15.3212 8.8159 14.8612 8.8159H13.2217C12.9083 8.8159 12.6225 8.63966 12.48 8.36132L11.9487 7.31965L10.0742 11.778C9.94417 12.088 9.64042 12.2892 9.30625 12.2892C9.29542 12.2892 9.28458 12.2892 9.27375 12.2884C8.92667 12.2755 8.62458 12.0484 8.515 11.7188L6.95833 7.03757L6.47083 8.28549C6.34583 8.60549 6.03792 8.81507 5.69458 8.81507H0V14.0513C0 14.968 0.75 15.718 1.66667 15.718H18.3333C19.25 15.718 20 14.968 20 14.0513V1.94757C20 1.03174 19.25 0.281738 18.3333 0.281738Z" fill="#F5F5F5"/>
</svg>
