<svg width="20" height="13" viewBox="0 0 20 13" fill="none" xmlns="http://www.w3.org/2000/svg">
<path fill-rule="evenodd" clip-rule="evenodd" d="M6.28905 7.42969C4.1933 7.42969 0 8.51333 0 10.6797V13.0002H12.5772V10.6797C12.5772 8.51333 8.3857 7.42969 6.28905 7.42969Z" fill="#F5F5F5"/>
<path fill-rule="evenodd" clip-rule="evenodd" d="M13.7135 7C13.4521 7 13.1592 7.01671 12.8457 7.05014C13.8859 7.82829 14.6109 8.87293 14.6109 10.25V12.5705H19.9998V10.25C19.9998 8.08364 15.8092 7 13.7135 7Z" fill="#F5F5F5"/>
<path fill-rule="evenodd" clip-rule="evenodd" d="M6.28867 0C4.80108 0 3.59375 1.24893 3.59375 2.78664C3.59375 4.32436 4.80108 5.57236 6.28867 5.57236C7.77717 5.57236 8.97551 4.32436 8.97551 2.78664C8.97551 1.24893 7.77717 0 6.28867 0Z" fill="#F5F5F5"/>
<path fill-rule="evenodd" clip-rule="evenodd" d="M13.4766 0C11.9872 0 10.7808 1.24893 10.7808 2.78664C10.7808 4.32436 11.9872 5.57236 13.4766 5.57236C14.9642 5.57236 16.1616 4.32436 16.1616 2.78664C16.1616 1.24893 14.9642 0 13.4766 0Z" fill="#F5F5F5"/>
</svg>
