<svg width="20" height="20" viewBox="0 0 20 20" fill="none" xmlns="http://www.w3.org/2000/svg">
<path d="M16.9922 10.1755H20V6.65992H1.17188C0.743086 6.65992 0.346094 6.53582 0 6.33398V16.6209C0 18.2362 1.31434 19.5505 2.92969 19.5505H20V16.0349H16.9922C15.3768 16.0349 14.0625 14.7206 14.0625 13.1052C14.0625 11.4899 15.3768 10.1755 16.9922 10.1755ZM9.96094 12.5193C10.9302 12.5193 11.7188 13.3078 11.7188 14.2771C11.7188 15.04 11.2274 15.6843 10.5469 15.927V17.2068H9.375V15.927C8.69445 15.6843 8.20312 15.04 8.20312 14.2771H9.375C9.375 14.6004 9.63766 14.863 9.96094 14.863C10.2842 14.863 10.5469 14.6004 10.5469 14.2771C10.5469 13.9538 10.2842 13.6912 9.96094 13.6912C8.99164 13.6912 8.20312 12.9027 8.20312 11.9334C8.20312 11.1705 8.69445 10.5262 9.375 10.2835V9.00367H10.5469V10.2835C11.2274 10.5262 11.7188 11.1705 11.7188 11.9334H10.5469C10.5469 11.6101 10.2842 11.3474 9.96094 11.3474C9.63766 11.3474 9.375 11.6101 9.375 11.9334C9.375 12.2566 9.63766 12.5193 9.96094 12.5193Z" fill="#F5F5F5"/>
<path d="M16.9922 11.3481C16.0229 11.3481 15.2344 12.1367 15.2344 13.106C15.2344 14.0753 16.0229 14.8638 16.9922 14.8638H20V11.3481H16.9922ZM17.5781 13.6919H16.4062V12.52H17.5781V13.6919Z" fill="#F5F5F5"/>
<path d="M7.61703 0.44873L3.58594 5.48811H11.6481L7.61703 0.44873Z" fill="#F5F5F5"/>
<path d="M12.3052 0.44873L10.7119 2.44064L13.15 5.48811H16.3362L12.3052 0.44873Z" fill="#F5F5F5"/>
<path d="M15.9614 3.14502L17.8365 5.48877H18.7495V3.14502H15.9614Z" fill="#F5F5F5"/>
<path d="M1.17188 3.14502C0.524648 3.14502 0 3.66967 0 4.31689C0 4.96408 0.524648 5.48877 1.17188 5.48877H2.08484L3.95996 3.14502H1.17188Z" fill="#F5F5F5"/>
</svg>
