<svg width="14" height="16" viewBox="0 0 14 16" fill="none" xmlns="http://www.w3.org/2000/svg">
<path d="M0.653809 0.807617V15.4229C0.653809 15.7414 0.912292 15.9999 1.23074 15.9999H12.7691C13.0876 15.9999 13.3461 15.7414 13.3461 15.4229V0.807617H0.653809ZM6.03833 13.4999C6.03833 13.8185 5.78015 14.0768 5.46155 14.0768C5.14279 14.0768 4.88461 13.8185 4.88461 13.4999V12.346C4.88461 12.0279 4.62567 11.7691 4.30768 11.7691H3.15381C2.83521 11.7691 2.57687 11.5107 2.57687 11.1921C2.57687 10.8735 2.83521 10.6152 3.15381 10.6152H4.30768C5.26196 10.6152 6.03833 11.3917 6.03833 12.346V13.4999ZM7.57687 5.03827V7.53827C7.57687 7.85703 7.31854 8.1152 6.99994 8.1152H6.23074C5.34146 8.1152 4.6069 7.44092 4.51093 6.57681H3.53833C3.21973 6.57681 2.96155 6.31848 2.96155 5.99988C2.96155 5.68127 3.21973 5.42294 3.53833 5.42294H4.49994V4.46149C4.49994 4.14273 4.75827 3.88455 5.07687 3.88455C5.39548 3.88455 5.65381 4.14273 5.65381 4.46149V6.38455C5.65381 6.70255 5.9126 6.96149 6.23074 6.96149H6.423V4.46149C6.423 4.14273 6.68134 3.88455 6.99994 3.88455H7.76913C8.65842 3.88455 9.39297 4.55884 9.48895 5.42294H10.4615C10.7802 5.42294 11.0383 5.68127 11.0383 5.99988C11.0383 6.31848 10.7802 6.57681 10.4615 6.57681H9.49994V7.53827C9.49994 7.85703 9.24161 8.1152 8.923 8.1152C8.6044 8.1152 8.34607 7.85703 8.34607 7.53827V5.6152C8.34607 5.29721 8.08728 5.03827 7.76913 5.03827H7.57687ZM10.8461 11.7691H9.6922C9.37421 11.7691 9.11526 12.0279 9.11526 12.346V13.4999C9.11526 13.8185 8.85709 14.0768 8.53833 14.0768C8.21973 14.0768 7.96155 13.8185 7.96155 13.4999V12.346C7.96155 11.3917 8.73792 10.6152 9.6922 10.6152H10.8461C11.1647 10.6152 11.423 10.8735 11.423 11.1921C11.423 11.5107 11.1647 11.7691 10.8461 11.7691Z" fill="#F5F5F5"/>
</svg>
